<?xml version="1.0" encoding="UTF-8" standalone="no"?>
<!DOCTYPE svg PUBLIC "-//W3C//DTD SVG 1.1//EN"
 "http://www.w3.org/Graphics/SVG/1.1/DTD/svg11.dtd">
<!-- Generated by graphviz version 2.31.20130125.0545 (20130125.0545)
 -->
<!-- Title: G Pages: 1 -->
<svg width="724pt" height="835pt"
 viewBox="0.00 0.00 724.00 835.00" xmlns="http://www.w3.org/2000/svg" xmlns:xlink="http://www.w3.org/1999/xlink">
<g id="graph0" class="graph" transform="scale(1 1) rotate(0) translate(4 831)">
<title>G</title>
<polygon fill="white" stroke="white" points="-4,5 -4,-831 721,-831 721,5 -4,5"/>
<g id="clust1" class="cluster"><title>cluster_global</title>
<path fill="none" stroke="gray" d="M279,-152C279,-152 696,-152 696,-152 702,-152 708,-158 708,-164 708,-164 708,-807 708,-807 708,-813 702,-819 696,-819 696,-819 279,-819 279,-819 273,-819 267,-813 267,-807 267,-807 267,-164 267,-164 267,-158 273,-152 279,-152"/>
<text text-anchor="middle" x="487.5" y="-804" font-family="Times,serif" font-size="11.00" fill="gray">global</text>
</g>
<!-- \\QMT_Terms -->
<g id="node1" class="node"><title>\\QMT_Terms</title>
<g id="a_node1"><a xlink:href="query-multiple-taxonomies.core.html" xlink:title="QMT_Terms" target="_parent">
<polygon fill="none" stroke="black" points="643.911,-790 568.089,-790 568.089,-754 643.911,-754 643.911,-790"/>
<text text-anchor="middle" x="606" y="-767.6" font-family="Courier,monospace" font-size="11.00">QMT_Terms</text>
</a>
</g>
</g>
<!-- \\QMT_URL -->
<g id="node2" class="node"><title>\\QMT_URL</title>
<g id="a_node2"><a xlink:href="query-multiple-taxonomies.core.html" xlink:title="QMT_URL" target="_parent">
<polygon fill="none" stroke="black" points="637.208,-736 574.792,-736 574.792,-700 637.208,-700 637.208,-736"/>
<text text-anchor="middle" x="606" y="-713.6" font-family="Courier,monospace" font-size="11.00">QMT_URL</text>
</a>
</g>
</g>
<!-- \\QMT_Template -->
<g id="node3" class="node"><title>\\QMT_Template</title>
<g id="a_node3"><a xlink:href="query-multiple-taxonomies.core.html" xlink:title="QMT_Template" target="_parent">
<polygon fill="none" stroke="black" points="653.713,-682 558.287,-682 558.287,-646 653.713,-646 653.713,-682"/>
<text text-anchor="middle" x="606" y="-659.6" font-family="Courier,monospace" font-size="11.00">QMT_Template</text>
</a>
</g>
</g>
<!-- \\Mustache -->
<g id="node4" class="node"><title>\\Mustache</title>
<g id="a_node4"><a xlink:href="query-multiple-taxonomies.mustache.Mustache.html" xlink:title="Mustache" target="_parent">
<polygon fill="none" stroke="black" points="640.309,-628 571.691,-628 571.691,-592 640.309,-592 640.309,-628"/>
<text text-anchor="middle" x="606" y="-605.6" font-family="Courier,monospace" font-size="11.00">Mustache</text>
</a>
</g>
</g>
<!-- \\MustacheException -->
<g id="node5" class="node"><title>\\MustacheException</title>
<g id="a_node5"><a xlink:href="query-multiple-taxonomies.mustache.Mustache.html" xlink:title="MustacheException" target="_parent">
<polygon fill="none" stroke="black" points="670.218,-304 541.782,-304 541.782,-268 670.218,-268 670.218,-304"/>
<text text-anchor="middle" x="606" y="-281.6" font-family="Courier,monospace" font-size="11.00">MustacheException</text>
</a>
</g>
</g>
<!-- \\Exception -->
<g id="node14" class="node"><title>\\Exception</title>
<ellipse fill="none" stroke="black" cx="317" cy="-126" rx="52.7417" ry="18"/>
<text text-anchor="middle" x="317" y="-120.4" font-family="Times,serif" font-size="14.00" fill="gray">\Exception</text>
</g>
<!-- \\MustacheException&#45;&gt;\\Exception -->
<g id="edge1" class="edge"><title>\\MustacheException&#45;&gt;\\Exception</title>
<path fill="none" stroke="black" d="M541.591,-274.221C531.085,-270.465 520.772,-265.517 512,-259 464.798,-223.932 488.963,-180.564 440,-148 422.523,-136.377 400.657,-130.417 380.282,-127.492"/>
<polygon fill="none" stroke="black" points="380.46,-123.987 370.111,-126.256 379.616,-130.936 380.46,-123.987"/>
</g>
<!-- \\scbForms -->
<g id="node6" class="node"><title>\\scbForms</title>
<g id="a_node6"><a xlink:href="query-multiple-taxonomies.scb.Forms.html" xlink:title="scbForms" target="_parent">
<polygon fill="none" stroke="black" points="640.309,-520 571.691,-520 571.691,-484 640.309,-484 640.309,-520"/>
<text text-anchor="middle" x="606" y="-497.6" font-family="Courier,monospace" font-size="11.00">scbForms</text>
</a>
</g>
</g>
<!-- \\scbLoad4 -->
<g id="node7" class="node"><title>\\scbLoad4</title>
<g id="a_node7"><a xlink:href="query-multiple-taxonomies.scb.load.html" xlink:title="scbLoad4" target="_parent">
<polygon fill="none" stroke="black" points="640.309,-466 571.691,-466 571.691,-430 640.309,-430 640.309,-466"/>
<text text-anchor="middle" x="606" y="-443.6" font-family="Courier,monospace" font-size="11.00">scbLoad4</text>
</a>
</g>
</g>
<!-- \\scbOptions -->
<g id="node8" class="node"><title>\\scbOptions</title>
<g id="a_node8"><a xlink:href="query-multiple-taxonomies.scb.Options.html" xlink:title="scbOptions" target="_parent">
<polygon fill="none" stroke="black" points="647.011,-412 564.989,-412 564.989,-376 647.011,-376 647.011,-412"/>
<text text-anchor="middle" x="606" y="-389.6" font-family="Courier,monospace" font-size="11.00">scbOptions</text>
</a>
</g>
</g>
<!-- \\scbUtil -->
<g id="node9" class="node"><title>\\scbUtil</title>
<g id="a_node9"><a xlink:href="query-multiple-taxonomies.scb.Util.html" xlink:title="scbUtil" target="_parent">
<polygon fill="none" stroke="black" points="637.208,-358 574.792,-358 574.792,-322 637.208,-322 637.208,-358"/>
<text text-anchor="middle" x="606" y="-335.6" font-family="Courier,monospace" font-size="11.00">scbUtil</text>
</a>
</g>
</g>
<!-- \\scbWidget -->
<g id="node10" class="node"><title>\\scbWidget</title>
<g id="a_node10"><a xlink:href="query-multiple-taxonomies.scb.Widget.html" xlink:title="«abstract»&lt;br/&gt;scbWidget" target="_parent">
<polygon fill="none" stroke="black" points="358.5,-574 275.5,-574 275.5,-538 358.5,-538 358.5,-574"/>
<text text-anchor="start" x="284" y="-557.5" font-family="Courier,monospace" font-size="11.00">«abstract»</text>
<text text-anchor="start" x="287.5" y="-546.5" font-family="Courier,monospace" font-size="11.00">scbWidget</text>
</a>
</g>
</g>
<!-- \\WP_Widget -->
<g id="node15" class="node"><title>\\WP_Widget</title>
<ellipse fill="none" stroke="black" cx="61" cy="-556" rx="61.1507" ry="18"/>
<text text-anchor="middle" x="61" y="-550.4" font-family="Times,serif" font-size="14.00" fill="gray">\WP_Widget</text>
</g>
<!-- \\scbWidget&#45;&gt;\\WP_Widget -->
<g id="edge2" class="edge"><title>\\scbWidget&#45;&gt;\\WP_Widget</title>
<path fill="none" stroke="black" d="M275.472,-556C237.059,-556 178.547,-556 132.49,-556"/>
<polygon fill="none" stroke="black" points="132.268,-552.5 122.268,-556 132.268,-559.5 132.268,-552.5"/>
</g>
<!-- \\Taxonomy_Drill_Down_Widget -->
<g id="node11" class="node"><title>\\Taxonomy_Drill_Down_Widget</title>
<g id="a_node11"><a xlink:href="query-multiple-taxonomies.widget.html" xlink:title="Taxonomy_Drill_Down_Widget" target="_parent">
<polygon fill="none" stroke="black" points="699.628,-574 512.372,-574 512.372,-538 699.628,-538 699.628,-574"/>
<text text-anchor="middle" x="606" y="-551.6" font-family="Courier,monospace" font-size="11.00">Taxonomy_Drill_Down_Widget</text>
</a>
</g>
</g>
<!-- \\Taxonomy_Drill_Down_Widget&#45;&gt;\\scbWidget -->
<g id="edge3" class="edge"><title>\\Taxonomy_Drill_Down_Widget&#45;&gt;\\scbWidget</title>
<path fill="none" stroke="black" d="M512.216,-556C464.709,-556 408.692,-556 369.057,-556"/>
<polygon fill="none" stroke="black" points="368.842,-552.5 358.841,-556 368.841,-559.5 368.842,-552.5"/>
</g>
<!-- \\QMT_List_Walker -->
<g id="node12" class="node"><title>\\QMT_List_Walker</title>
<g id="a_node12"><a xlink:href="query-multiple-taxonomies.widget.html" xlink:title="QMT_List_Walker" target="_parent">
<polygon fill="none" stroke="black" points="663.516,-250 548.484,-250 548.484,-214 663.516,-214 663.516,-250"/>
<text text-anchor="middle" x="606" y="-227.6" font-family="Courier,monospace" font-size="11.00">QMT_List_Walker</text>
</a>
</g>
</g>
<!-- \\Walker_Category -->
<g id="node16" class="node"><title>\\Walker_Category</title>
<ellipse fill="none" stroke="black" cx="317" cy="-72" rx="81.6833" ry="18"/>
<text text-anchor="middle" x="317" y="-66.4" font-family="Times,serif" font-size="14.00" fill="gray">\Walker_Category</text>
</g>
<!-- \\QMT_List_Walker&#45;&gt;\\Walker_Category -->
<g id="edge4" class="edge"><title>\\QMT_List_Walker&#45;&gt;\\Walker_Category</title>
<path fill="none" stroke="black" d="M548.027,-222.172C535.387,-218.226 522.609,-212.708 512,-205 465.926,-171.524 487.133,-130.967 440,-99 428.659,-91.3083 415.487,-85.7686 402.078,-81.7871"/>
<polygon fill="none" stroke="black" points="402.861,-78.3733 392.295,-79.1549 401.042,-85.1329 402.861,-78.3733"/>
</g>
<!-- \\QMT_Dropdown_Walker -->
<g id="node13" class="node"><title>\\QMT_Dropdown_Walker</title>
<g id="a_node13"><a xlink:href="query-multiple-taxonomies.widget.html" xlink:title="QMT_Dropdown_Walker" target="_parent">
<polygon fill="none" stroke="black" points="676.921,-196 535.079,-196 535.079,-160 676.921,-160 676.921,-196"/>
<text text-anchor="middle" x="606" y="-173.6" font-family="Courier,monospace" font-size="11.00">QMT_Dropdown_Walker</text>
</a>
</g>
</g>
<!-- \\Walker_CategoryDropdown -->
<g id="node17" class="node"><title>\\Walker_CategoryDropdown</title>
<ellipse fill="none" stroke="black" cx="317" cy="-18" rx="122.795" ry="18"/>
<text text-anchor="middle" x="317" y="-12.4" font-family="Times,serif" font-size="14.00" fill="gray">\Walker_CategoryDropdown</text>
</g>
<!-- \\QMT_Dropdown_Walker&#45;&gt;\\Walker_CategoryDropdown -->
<g id="edge5" class="edge"><title>\\QMT_Dropdown_Walker&#45;&gt;\\Walker_CategoryDropdown</title>
<path fill="none" stroke="black" d="M588.121,-159.789C560.197,-130.815 501.347,-74.4913 440,-45 431.055,-40.7 421.411,-37.0746 411.604,-34.0201"/>
<polygon fill="none" stroke="black" points="412.341,-30.5894 401.761,-31.1519 410.382,-37.3099 412.341,-30.5894"/>
</g>
</g>
</svg>
